<svg xmlns:xlink="http://www.w3.org/1999/xlink" preserveAspectRatio="xMidYMid meet" data-bbox="103 117.5 1678 1677" xmlns="http://www.w3.org/2000/svg" viewBox="0 0 1873 1878" fill-rule="evenodd" clip-rule="evenodd" stroke-linejoin="round" stroke-miterlimit="2" data-type="ugc" role="presentation" aria-hidden="true" aria-label="" width="1873"  height="1878" >
    <g>
        <path d="M251 746.5H103v-131h148v131zm925 377c39 21 82 37 127 47-58 79-102 148-102 256v172c0 108-88 196-196 196H879c-108 0-196-88-196-196v-172c0-121-55-194-125-286-84-110-178-234-180-460v-3c2-309 255-560 564-560 112 0 217 33 305 90-51 17-97 42-139 74-51-21-107-33-166-33-238 0-432 193-432 431 0 182 74 279 152 382 61 80 123 162 144 278h272c16-87 54-154 98-216zm-106 475v-128H814v128c0 36 29 65 65 65h126c36 0 65-29 65-65zm-712-1299l-135-68-59 117 135 68 59-117zm-194 706l59 117 139-70-59-117-139 70z" fill="#007CAF" fill-rule="nonzero"></path>
        <path d="M1664 746.5c-6 24-15 47-28 68l83 83-92 92-83-83c-21 13-44 22-68 28v117h-131v-117c-24-6-47-15-68-28l-83 83-92-92 83-83c-13-21-22-44-28-68h-120v-131h120c6-24 15-47 28-68l-83-83 92-92 83 83c21-13 44-22 68-28v-117h131v117c24 6 47 15 68 28l83-83 92 92-83 83c13 21 22 44 28 68h117v131h-117zm-385-68c0 72 57 132 128 134 74 1 135-58 135-132 0-72-59-131-131-131h-3c-71 0-129 58-129 129z" fill="#ED1B25" fill-rule="nonzero"></path>
    </g>
</svg>