<svg xmlns:xlink="http://www.w3.org/1999/xlink" preserveAspectRatio="xMidYMid meet" data-bbox="76 105.5 1626 1625" xmlns="http://www.w3.org/2000/svg" viewBox="0 0 1764 1812" fill-rule="evenodd" clip-rule="evenodd" stroke-linejoin="round" stroke-miterlimit="2" data-type="ugc" role="presentation" aria-hidden="true" aria-label="" width="1764"  height="1812" >
    <g>
        <path d="M375 562.5h63v64c0 26 22 47 48 47s48-21 48-47v-64h63c26 0 48-21 48-47 0-27-22-48-48-48h-63v-63c0-27-22-48-48-48s-48 21-48 48v63h-63c-26 0-48 21-48 48 0 26 22 47 48 47z" fill="#007CAF"></path>
        <path d="M1114 562.5h191c26 0 47-21 47-47 0-27-21-48-47-48h-191c-26 0-47 21-47 48 0 26 21 47 47 47z" fill="#007CAF"></path>
        <path d="M1321 1270.5h-223c-26 0-47 21-47 48 0 26 21 47 47 47h223c26 0 47-21 47-47 0-27-21-48-47-48z" fill="#ED1B25"></path>
        <path d="M1321 1111.5h-223c-26 0-47 22-47 48s21 48 47 48h223c26 0 47-22 47-48s-21-48-47-48z" fill="#ED1B25"></path>
        <path d="M599 1125.5c-19-18-49-18-67 0l-46 46-46-46c-18-18-49-18-67 0-19 19-19 49 0 68l46 45-46 46c-19 19-19 49 0 67 9 10 21 14 34 14 12 0 24-4 33-14l46-45 46 45c9 10 21 14 33 14s25-4 34-14c19-18 19-48 0-67l-46-46 46-45c19-19 19-49 0-68z" fill="#007CAF"></path>
        <path d="M1619 966.5v-718c0-79-64-143-143-143H219c-78 0-143 64-143 143v1257c0 79 65 143 143 143h718c78 52 172 82 273 82 271 0 492-220 492-492 0-100-31-194-83-272zm-95-718v612c-86-71-195-114-314-114-120 0-229 43-315 114v-660h581c26 0 48 22 48 48zm-1305-48h581v629H172v-581c0-26 21-48 47-48zm-47 1305v-581h628v42c-52 78-82 172-82 272 0 120 42 229 113 314H219c-26 0-47-21-47-47zm1038 130c-219 0-397-178-397-397 0-218 178-396 397-396 218 0 396 178 396 396 0 219-178 397-396 397z" fill="#007CAF"></path>
    </g>
</svg>