<svg xmlns:xlink="http://www.w3.org/1999/xlink" preserveAspectRatio="xMidYMid meet" data-bbox="55 38 90 124" viewBox="55 38 90 124" height="200" width="200" xmlns="http://www.w3.org/2000/svg" data-type="color" role="presentation" aria-hidden="true" aria-label=""><defs><style>#comp-khbknrwa svg [data-color="1"] {fill: #007CAF;}
#comp-khbknrwa svg [data-color="2"] {fill: #ED1C24;}</style></defs>
    <g>
        <path fill="#007CAF" d="M125.6 153.6v8.4H74.4v-8.4h51.2z" data-color="1"></path>
        <path d="M139.1 67.1c-16.2-3.3-26.2-12.7-31.3-19.2L100 38l-7.8 9.9c-5.1 6.5-15.1 15.9-31.3 19.2-3.5.7-5.9 3.6-5.9 6.9v35c0 .7.1 1.4.3 2 1.2 3.7 8.7 22.9 41 40.1 1.1.6 2.4.9 3.7.9s2.6-.3 3.7-.9c32.3-17.1 39.8-36.4 41-40.1.2-.6.3-1.3.3-2V74c0-3.4-2.4-6.2-5.9-6.9zm-3.1 41.7c-.9 2.7-7.6 19.3-36 34.6-28.3-15.3-35-31.8-36-34.6V75.1c18.9-4.1 30.3-15.4 36-22.9 5.7 7.5 17.1 18.7 36 22.9v33.7z" fill="#007CAF" data-color="1"></path>
        <path fill="#ED1C24" d="M88.1 96.5l-5.1 6.9 14.9 12.3.1-.1.4.3L117 90.3l-6.6-5.4-13.6 18.7-8.7-7.1z" data-color="2"></path>
    </g>
</svg>