<svg xmlns:xlink="http://www.w3.org/1999/xlink" preserveAspectRatio="xMidYMid meet" data-bbox="7.195 27.265 53.091 15.286" xmlns="http://www.w3.org/2000/svg" viewBox="0 0 68 69" fill-rule="evenodd" clip-rule="evenodd" stroke-linejoin="round" stroke-miterlimit="2" data-type="ugc" role="presentation" aria-hidden="true" aria-label="" width="112"  height="114" >
    <g>
        <path d="M21.898 40.498c-1.868-1.861-3.73-3.729-5.595-5.592 1.918-1.931 3.85-3.847 5.768-5.777.349-.343.43-.923.163-1.337-.314-.55-1.164-.656-1.609-.208-1.938 1.934-3.874 3.87-5.809 5.808-1.93-1.894-3.837-3.81-5.749-5.724-.255-.267-.638-.423-1.008-.349-.533.092-.937.637-.853 1.173.056.438.42.727.709 1.022 1.769 1.769 3.543 3.534 5.305 5.311l.039.104c-1.902 1.947-3.851 3.853-5.767 5.789-.269.274-.364.7-.237 1.064.145.487.692.796 1.187.7.408-.056.658-.416.937-.679 1.825-1.782 3.613-3.6 5.421-5.399 1.923 1.907 3.832 3.829 5.748 5.742.269.285.687.435 1.071.315.481-.111.824-.612.77-1.1-.004-.355-.251-.633-.491-.863z" fill="#0D0D0D" fill-rule="nonzero"></path>
        <path d="M24.528 33.623c.34-1.343 1.183-2.557 2.35-3.309a5.466 5.466 0 0 1 4.79-.587c1.745.585 3.114 2.113 3.548 3.897l-10.688-.001zm10.741-4.139c-1.14-1.162-2.684-1.91-4.295-2.124-1.958-.282-4.026.224-5.613 1.41-2.505 1.814-3.681 5.242-2.818 8.212.473 1.714 1.585 3.23 3.049 4.231a7.56 7.56 0 0 0 4.889 1.314 7.888 7.888 0 0 0 3.449-1.139c.814-.509 1.487-1.21 2.077-1.958.254-.312.303-.75.197-1.13-.184-.594-.971-.885-1.503-.57-.338.181-.503.544-.751.817-.689.777-1.588 1.375-2.592 1.654-1.687.482-3.612.086-4.948-1.061-1.02-.857-1.772-2.073-1.959-3.403 3.514.007 7.03-.002 10.545.004.546.023 1.119-.053 1.588-.354.619-.388.935-1.17.795-1.882-.292-1.506-1.004-2.947-2.11-4.021z" fill="#0D0D0D" fill-rule="nonzero"></path>
        <path d="M57.11 38.028a5.456 5.456 0 0 1-3.344 2.21 5.383 5.383 0 0 1-3.587-.48 5.472 5.472 0 0 1-2.878-3.794 5.4 5.4 0 0 1 .981-4.32 5.442 5.442 0 0 1 3.378-2.107 5.391 5.391 0 0 1 3.296.424c1.504.699 2.66 2.118 3.013 3.743.35 1.475.021 3.091-.859 4.324zm2.655-5.897a7.62 7.62 0 0 0-3.387-3.894 7.663 7.663 0 0 0-4.75-.905c-2.481.317-4.743 1.944-5.828 4.197-.888 1.781-1.022 3.916-.388 5.8a7.62 7.62 0 0 0 2.643 3.666 7.547 7.547 0 0 0 4.639 1.533c1.653.008 3.298-.567 4.606-1.572a7.643 7.643 0 0 0 2.735-4.118 7.607 7.607 0 0 0-.27-4.707z" fill="#0D0D0D" fill-rule="nonzero"></path>
        <path d="M45.498 28.759c.187-.548-.175-1.218-.75-1.328-1.128-.142-2.305.146-3.215.833-.166-.547-.76-.922-1.323-.75-.471.117-.792.594-.763 1.073-.004 4.228-.004 8.454 0 12.683-.043.59.461 1.153 1.06 1.136.563.015 1.072-.48 1.051-1.046.008-2.454.001-4.91.004-7.365.004-.915-.037-1.846.162-2.746.115-.538.416-1.056.903-1.334.582-.324 1.26-.417 1.917-.448.424-.005.841-.291.954-.708z" fill="#0D0D0D" fill-rule="nonzero"></path>
        <path d="M52.147 33.06c-.597.172-1.11.638-1.304 1.233-.199.608-.082 1.318.332 1.811.472.605 1.336.844 2.061.61.808-.251 1.392-1.09 1.306-1.94-.016-1.169-1.287-2.045-2.395-1.714z" fill="#0D0D0D" fill-rule="nonzero"></path>
    </g>
</svg>